<svg xmlns="http://www.w3.org/2000/svg" viewBox="0 0 512 200" fill="none">
  <g stroke="currentColor" stroke-width="6" stroke-linecap="square" fill="none">
    <path d="M16 44 L16 18 Q16 12 22 12 L46 12"/>
    <path d="M154 12 L178 12 Q184 12 184 18 L184 44"/>
    <path d="M184 156 L184 182 Q184 188 178 188 L154 188"/>
    <path d="M46 188 L22 188 Q16 188 16 182 L16 156"/>
  </g>
  <g fill="currentColor">
    <ellipse cx="74" cy="142" rx="22" ry="16" transform="rotate(-18 74 142)"/>
    <ellipse cx="142" cy="142" rx="22" ry="16" transform="rotate(-18 142 142)"/>
    <rect x="92" y="60" width="9" height="86" rx="3" transform="rotate(-6 96.5 103)"/>
    <rect x="160" y="60" width="9" height="86" rx="3" transform="rotate(-6 164.5 103)"/>
    <path d="M95 62 Q166 44 167 70 L167 92 Q138 78 95 90 Z"/>
  </g>
  <text x="232" y="118" font-family="Inter, ui-sans-serif, system-ui, sans-serif" font-weight="800" font-size="64" fill="currentColor" letter-spacing="-2">Scan my</text>
  <text x="232" y="180" font-family="Inter, ui-sans-serif, system-ui, sans-serif" font-weight="800" font-size="64" fill="currentColor" letter-spacing="-2">Sound</text>
</svg>
