<svg xmlns="http://www.w3.org/2000/svg" viewBox="0 0 512 512" fill="none">
  <defs>
    <linearGradient id="frameGrad" x1="0" y1="0" x2="1" y2="1">
      <stop offset="0%" stop-color="#82d1ff"/>
      <stop offset="100%" stop-color="#6ef3c5"/>
    </linearGradient>
  </defs>

  <!-- Cantos tipo viewfinder / scanner -->
  <g stroke="url(#frameGrad)" stroke-width="18" stroke-linecap="square" fill="none">
    <path d="M40 110 L40 50 Q40 40 50 40 L110 40"/>
    <path d="M402 40 L462 40 Q472 40 472 50 L472 110"/>
    <path d="M472 402 L472 462 Q472 472 462 472 L402 472"/>
    <path d="M110 472 L50 472 Q40 472 40 462 L40 402"/>
  </g>

  <!-- Nota musical (quaver) estilizada -->
  <g fill="url(#frameGrad)">
    <ellipse cx="200" cy="360" rx="56" ry="42" transform="rotate(-18 200 360)"/>
    <ellipse cx="360" cy="360" rx="56" ry="42" transform="rotate(-18 360 360)"/>
    <rect x="245" y="160" width="22" height="220" rx="6" transform="rotate(-6 256 270)"/>
    <rect x="405" y="160" width="22" height="220" rx="6" transform="rotate(-6 416 270)"/>
    <path d="M255 165 Q420 110 425 175 L425 240 Q360 210 255 245 Z"/>
  </g>
</svg>
