<svg xmlns="http://www.w3.org/2000/svg" viewBox="0 0 677 745" fill="none">
  <rect width="677" height="745" rx="50" fill="black"/>
  <line x1="30.0137" y1="15.8585" x2="30.0137" y2="137.353" stroke="white" stroke-width="10"/>
  <line y1="-5" x2="113.898" y2="-5" transform="matrix(-0.999885 0.0151793 -0.0133404 -0.999911 138.717 10.2963)" stroke="white" stroke-width="10"/>
  <line x1="30.0137" y1="15.8585" x2="30.0137" y2="137.353" stroke="white" stroke-width="10"/>
  <line y1="-5" x2="113.898" y2="-5" transform="matrix(-0.999885 0.0151793 -0.0133404 -0.999911 138.717 10.2963)" stroke="white" stroke-width="10"/>
  <line y1="-5" x2="121.495" y2="-5" transform="matrix(0 1 1 0 653.43 15.8585)" stroke="white" stroke-width="10"/>
  <line y1="-5" x2="111.853" y2="-5" transform="matrix(0.99988 0.0154569 0.0131008 -0.999914 541.768 10.2963)" stroke="white" stroke-width="10"/>
  <line y1="-5" x2="121.495" y2="-5" transform="matrix(0 1 1 0 653.43 15.8585)" stroke="white" stroke-width="10"/>
  <line y1="-5" x2="111.853" y2="-5" transform="matrix(0.99988 0.0154569 0.0131008 -0.999914 541.768 10.2963)" stroke="white" stroke-width="10"/>
  <line y1="-5" x2="93.3493" y2="-5" transform="matrix(0 1 1 0 637.041 32.4166)" stroke="white" stroke-width="10"/>
  <line y1="-5" x2="85.9411" y2="-5" transform="matrix(0.99988 0.0154569 0.0131008 -0.999914 551.246 28.1429)" stroke="white" stroke-width="10"/>
  <line y1="-5" x2="93.3493" y2="-5" transform="matrix(0 1 1 0 637.041 32.4166)" stroke="white" stroke-width="10"/>
  <line y1="-5" x2="85.9411" y2="-5" transform="matrix(0.99988 0.0154569 0.0131008 -0.999914 551.246 28.1429)" stroke="white" stroke-width="10"/>
  <line x1="45.416" y1="32.4166" x2="45.416" y2="125.766" stroke="white" stroke-width="10"/>
  <line y1="-5" x2="87.5125" y2="-5" transform="matrix(-0.999885 0.0151793 -0.0133404 -0.999911 127.779 28.1429)" stroke="white" stroke-width="10"/>
  <line x1="45.416" y1="32.4166" x2="45.416" y2="125.766" stroke="white" stroke-width="10"/>
  <line y1="-5" x2="87.5125" y2="-5" transform="matrix(-0.999885 0.0151793 -0.0133404 -0.999911 127.779 28.1429)" stroke="white" stroke-width="10"/>
  <line y1="-5" x2="93.3493" y2="-5" transform="matrix(0 -1 -1 0 43.6309 613.649)" stroke="white" stroke-width="10"/>
  <line y1="-5" x2="87.5125" y2="-5" transform="matrix(-0.999885 -0.0151793 -0.0133404 0.999911 130.996 617.923)" stroke="white" stroke-width="10"/>
  <line y1="-5" x2="93.3493" y2="-5" transform="matrix(0 -1 -1 0 43.6309 613.649)" stroke="white" stroke-width="10"/>
  <line y1="-5" x2="87.5125" y2="-5" transform="matrix(-0.999885 -0.0151793 -0.0133404 0.999911 130.996 617.923)" stroke="white" stroke-width="10"/>
  <line x1="632.041" y1="613.649" x2="632.041" y2="520.3" stroke="white" stroke-width="10"/>
  <line y1="-5" x2="85.9411" y2="-5" transform="matrix(0.99988 -0.0154569 0.0131008 0.999914 551.246 617.923)" stroke="white" stroke-width="10"/>
  <line x1="632.041" y1="613.649" x2="632.041" y2="520.3" stroke="white" stroke-width="10"/>
  <line y1="-5" x2="85.9411" y2="-5" transform="matrix(0.99988 -0.0154569 0.0131008 0.999914 551.246 617.923)" stroke="white" stroke-width="10"/>
  <line x1="30.0488" y1="631.098" x2="143.945" y2="631.098" stroke="#FFFDFD" stroke-width="10"/>
  <line y1="-5" x2="121.494" y2="-5" transform="matrix(0.0133404 0.999911 -0.999885 0.0151793 24.834 514.808)" stroke="#FFFDFD" stroke-width="10"/>
  <line y1="-5" x2="111.851" y2="-5" transform="matrix(-1 0 0 1 649.828 636.098)" stroke="white" stroke-width="10"/>
  <line y1="-5" x2="121.492" y2="-5" transform="matrix(-0.0131008 0.999914 0.99988 0.0154569 654.949 514.808)" stroke="white" stroke-width="10"/>
  <path d="M475.909 395.259L472.483 193.576C472.483 187.275 467.562 183.572 462.828 179.609C458.094 175.646 451.304 176.14 445.387 177.504H272.28C263.123 179.583 256.645 188.028 256.645 197.773V346.278C250.416 344.329 243.688 343.289 236.712 343.289C203.697 343.289 176.912 366.546 176.912 395.259C176.912 423.973 203.697 447.23 236.712 447.23C269.726 447.23 296.511 423.973 296.511 395.259V261.241H431.683V346.278C425.453 344.329 417.169 343.289 410.192 343.289C377.178 343.289 359.736 366.546 359.736 395.259C359.736 423.973 383.096 447.23 416.11 447.23C449.124 447.23 475.909 423.973 475.909 395.259Z" fill="white"/>
  <text x="338.5" y="725" font-family="Inter, ui-sans-serif, system-ui, -apple-system, BlinkMacSystemFont, 'Segoe UI', sans-serif" font-weight="800" font-size="84" fill="white" text-anchor="middle" letter-spacing="-3">Scan my Sound</text>
</svg>
